<svg xmlns="http://www.w3.org/2000/svg" width="882.126" height="576.272" viewBox="0 0 882.126 576.272" xmlns:xlink="http://www.w3.org/1999/xlink" role="img" artist="Katerina Limpitsouni" source="https://undraw.co/">
  <g id="Group_138" data-name="Group 138" transform="translate(-519 -251.864)">
    <g id="Group_137" data-name="Group 137">
      <path id="Path_1240-445" data-name="Path 1240" d="M958.821,382.941,907.537,402.1,893.89,367.923l36.505-12.787C931.953,364.095,939.352,378.718,958.821,382.941Z" transform="matrix(0.914, 0.407, -0.407, 0.914, 46.029, -113.727)" fill="#ffb8b8"/>
      <circle id="Ellipse_405" data-name="Ellipse 405" cx="26.701" cy="26.701" r="26.701" transform="translate(928.774 296.429)" fill="#fd6584"/>
      <path id="Path_2166-446" data-name="Path 2166" d="M655.233,220.487a13.235,13.235,0,0,0-11.17-9.29,1.078,1.078,0,0,0-.18,0,1.418,1.418,0,0,0-.22-.05c-8.94-1.16-18.88,1.66-25.57,7.8a23.958,23.958,0,0,0-5.83,8.04,12.917,12.917,0,0,0-10.83-5.28,13.184,13.184,0,0,0-11.8,9.51,1.526,1.526,0,0,0,.69,1.69,6.674,6.674,0,0,0,2.79,1.42c2.21.47,4.44.9,6.67,1.29q6.54,1.14,13.15,1.85,4.365.465,8.75.74c6.04.38,12.11.47,18.16.28,3-.1,5.88-.2,8.62-1.52a12.8,12.8,0,0,0,4.95-4.31,14.548,14.548,0,0,0,1.82-12.17Z" transform="translate(360 90)" fill="#f2f2f2"/>
      <path id="Path_2167-447" data-name="Path 2167" d="M600.3,259.387a13.65,13.65,0,0,0-.56-3.3,13.26,13.26,0,0,0-11.18-9.29.966.966,0,0,0-.17,0,1.884,1.884,0,0,0-.23-.05,33.193,33.193,0,0,0-14.69,1.51c-7.26,2.43-13.63,7.33-16.7,14.33a12.922,12.922,0,0,0-10.84-5.28,13.184,13.184,0,0,0-11.8,9.51,1.555,1.555,0,0,0,.69,1.69,6.733,6.733,0,0,0,2.79,1.42c2.22.47,4.44.9,6.68,1.29q6.54,1.14,13.14,1.85a195.168,195.168,0,0,0,26.92,1.02c2.99-.1,5.88-.2,8.62-1.52a12.77,12.77,0,0,0,4.94-4.31,14.265,14.265,0,0,0,2.39-8.87Z" transform="translate(360 90)" fill="#f2f2f2"/>
      <path id="Path_2170-448" data-name="Path 2170" d="M895.47,639.046H792.093a167.922,167.922,0,0,1,.149-24.858c4.131-51.094,31.929-99.768,73.868-129.241-5.359,19.09-2.6,38.069,2.977,57.122-.781.26-1.563.484-2.27.781a46.236,46.236,0,0,0-15.294,9.378c-1.228,1.154-2.53,2.828-1.9,4.428.558,1.34,2.233,1.786,3.684,2.084,3.5.67,7,1.34,10.457,1.972,2.791.558,5.582,1.079,8.373,1.637,1.3.223,2.6.484,3.907.744.186.447.3.856.484,1.265,6.549,18.048,13.694,36.245,17.044,54.74a127.806,127.806,0,0,1,1.712,14.029C895.4,635.1,895.47,637.074,895.47,639.046Z" transform="translate(360 90)" fill="#f2f2f2"/>
      <path id="Path_2172-449" data-name="Path 2172" d="M424.08,571.318c-17.565,10.68-28.729,27.2-37.846,45.7a46.743,46.743,0,0,0-21.249,11.164c-1.265,1.154-2.568,2.828-1.9,4.428.558,1.34,2.233,1.786,3.684,2.084,3.461.67,7,1.34,10.457,1.972-.335.782-.67,1.6-1,2.382H260.12A164.175,164.175,0,0,1,277.573,619.1c1.377-1.377,2.791-2.679,4.242-4.019a173.651,173.651,0,0,1,50.238-31.706,176.734,176.734,0,0,1,92.028-12.057Z" transform="translate(360 90)" fill="#f2f2f2"/>
      <path id="Path_2174-450" data-name="Path 2174" d="M664.33,595.644l92.37,8.2.99.09V209.794l-.99-.69a288.324,288.324,0,0,0-62.01-32.94l-4.72,65.1-.43,5.96-4.67,64.56-1.44,19.86-18.93,261.7Z" transform="translate(360 90)" fill="#f2f2f2"/>
      <path id="Path_2175-451" data-name="Path 2175" d="M435.9,202.454c-.66.42-1.32.84-1.98,1.28v400.2l1.98-.18,91.37-8.11-.17-2.3-18.93-261.7-1.44-19.86-4.67-64.56-.43-5.96-4.95-68.27a287.689,287.689,0,0,0-60.78,29.46Z" transform="translate(360 90)" fill="#f2f2f2"/>
      <path id="Path_2176-452" data-name="Path 2176" d="M433.92,203.734c-1.33.86-2.66,1.74-3.97,2.63v403.03c0,10.07,5.97,18.51,13.95,20.66a15.251,15.251,0,0,0,4,.53H744.7a15.117,15.117,0,0,0,3.99-.53,17.06,17.06,0,0,0,7.78-4.66,22.919,22.919,0,0,0,6.18-16V213.374c-1.64-1.21-3.29-2.41-4.96-3.58l-.99-.69v400.29a16.113,16.113,0,0,1-.46,3.85c-1.41,5.95-6.06,10.31-11.54,10.31H447.9c-6.62,0-12-6.35-12-14.16V202.454C435.24,202.874,434.58,203.294,433.92,203.734Z" transform="translate(360 90)" fill="#f2f2f2"/>
      <rect id="Rectangle_484" data-name="Rectangle 484" width="326.752" height="5.959" transform="translate(792.922 331.268)" fill="#f2f2f2"/>
      <path id="Path_2177-453" data-name="Path 2177" d="M659.6,165.254c-1.98-.49-3.96-.95-5.96-1.38v161.81h5.96Z" transform="translate(360 90)" fill="#f2f2f2"/>
      <path id="Path_2178-454" data-name="Path 2178" d="M538.96,161.864c-1.99.37-3.98.75-5.96,1.16v162.66h5.96Z" transform="translate(360 90)" fill="#f2f2f2"/>
      <path id="Path_2179-455" data-name="Path 2179" d="M368.86,620.154a26.712,26.712,0,0,0,1.93,9.98,25.539,25.539,0,0,0,1.75,3.56,27.1,27.1,0,0,0,3.02,4.18,26.76,26.76,0,0,0,20.12,9.11H786.99a26.82,26.82,0,0,0,0-53.64H395.68A26.846,26.846,0,0,0,368.86,620.154Z" transform="translate(360 90)" fill="#f2f2f2"/>
      <rect id="Rectangle_485" data-name="Rectangle 485" width="324.766" height="19.863" transform="translate(1117.688 421.646) rotate(180)" fill="#f2f2f2"/>
      <path id="Path_2180-456" data-name="Path 2180" d="M581.4,305.824H609.21a10.925,10.925,0,0,1-10.925,10.925h-5.959A10.925,10.925,0,0,1,581.4,305.824h0Z" transform="translate(1550.611 712.572) rotate(180)" fill="#f2f2f2"/>
      <path id="Path_2181-457" data-name="Path 2181" d="M159.92,635.474a292.039,292.039,0,0,0,28.749,28.95H1013.3a292.039,292.039,0,0,0,28.749-28.95Z" transform="translate(359.08 90)" fill="#f2f2f2"/>
      <path id="Path_2182-458" data-name="Path 2182" d="M556.61,538.664v102.56h71.85V538.664a3.448,3.448,0,0,0-2.43-3.3,3.174,3.174,0,0,0-1.03-.16H560.08A3.463,3.463,0,0,0,556.61,538.664Zm28.04,35.24a7.67,7.67,0,1,1,15.34,0v11.9a7.67,7.67,0,1,1-15.34,0Z" transform="translate(360 90)" fill="#e6e6e6"/>
      <path id="Path_2183-459" data-name="Path 2183" d="M556.39,637.944v9.89a1.946,1.946,0,0,0,1.93,1.94h68.43a1.94,1.94,0,0,0,1.93-1.94v-9.89Z" transform="translate(360 90)" fill="#3f3d56"/>
      <path id="Path_2184-460" data-name="Path 2184" d="M443.58,384.144V571.4a9.007,9.007,0,0,0,9,9h277.5a9.007,9.007,0,0,0,9-9V384.144a9.012,9.012,0,0,0-9-8.99H452.58a9.011,9.011,0,0,0-9,8.99Z" transform="translate(360 90)" fill="#3f3d56"/>
      <path id="Path_2185-461" data-name="Path 2185" d="M450.09,386.474v182.62a4.818,4.818,0,0,0,4.81,4.81H727.77a4.818,4.818,0,0,0,4.81-4.81V386.474a4.82,4.82,0,0,0-4.81-4.82H454.9a4.821,4.821,0,0,0-4.81,4.82Z" transform="translate(360 90)" fill="#f2f2f2"/>
      <path id="Path_2186-462" data-name="Path 2186" d="M505.73,652.1a2.948,2.948,0,0,0,2.32,1.11H670.39a2.987,2.987,0,0,0,2.92-3.6l-2.52-11.97a2.993,2.993,0,0,0-1.86-2.17,2.9,2.9,0,0,0-1.06-.2H510.56a2.894,2.894,0,0,0-1.06.2,2.992,2.992,0,0,0-1.86,2.17l-2.52,11.97a2.985,2.985,0,0,0,.61,2.49Z" transform="translate(360 90)" fill="#2f2e41"/>
      <rect id="Rectangle_486" data-name="Rectangle 486" width="5" height="3" rx="0.488" transform="translate(1026.717 730.43) rotate(180)" fill="#3f3d56"/>
      <rect id="Rectangle_487" data-name="Rectangle 487" width="5" height="3" rx="0.488" transform="translate(1016.717 730.43) rotate(180)" fill="#3f3d56"/>
      <rect id="Rectangle_488" data-name="Rectangle 488" width="5" height="3" rx="0.488" transform="translate(1006.717 730.43) rotate(180)" fill="#3f3d56"/>
      <rect id="Rectangle_489" data-name="Rectangle 489" width="5" height="3" rx="0.488" transform="translate(996.717 730.43) rotate(180)" fill="#3f3d56"/>
      <rect id="Rectangle_490" data-name="Rectangle 490" width="5" height="3" rx="0.488" transform="translate(986.717 730.43) rotate(180)" fill="#3f3d56"/>
      <rect id="Rectangle_491" data-name="Rectangle 491" width="5" height="3" rx="0.488" transform="translate(976.717 730.43) rotate(180)" fill="#3f3d56"/>
      <rect id="Rectangle_492" data-name="Rectangle 492" width="5" height="3" rx="0.488" transform="translate(966.717 730.43) rotate(180)" fill="#3f3d56"/>
      <rect id="Rectangle_493" data-name="Rectangle 493" width="5" height="3" rx="0.488" transform="translate(956.717 730.43) rotate(180)" fill="#3f3d56"/>
      <rect id="Rectangle_494" data-name="Rectangle 494" width="5" height="3" rx="0.488" transform="translate(946.717 730.43) rotate(180)" fill="#3f3d56"/>
      <rect id="Rectangle_495" data-name="Rectangle 495" width="5" height="3" rx="0.488" transform="translate(936.717 730.43) rotate(180)" fill="#3f3d56"/>
      <rect id="Rectangle_496" data-name="Rectangle 496" width="5" height="3" rx="0.488" transform="translate(926.717 730.43) rotate(180)" fill="#3f3d56"/>
      <rect id="Rectangle_497" data-name="Rectangle 497" width="5" height="3" rx="0.488" transform="translate(916.717 730.43) rotate(180)" fill="#3f3d56"/>
      <rect id="Rectangle_498" data-name="Rectangle 498" width="5" height="3" rx="0.488" transform="translate(906.717 730.43) rotate(180)" fill="#3f3d56"/>
      <rect id="Rectangle_499" data-name="Rectangle 499" width="5" height="3" rx="0.488" transform="translate(896.717 730.43) rotate(180)" fill="#3f3d56"/>
      <rect id="Rectangle_500" data-name="Rectangle 500" width="5" height="3" rx="0.488" transform="translate(886.717 730.43) rotate(180)" fill="#3f3d56"/>
      <rect id="Rectangle_501" data-name="Rectangle 501" width="5" height="3" rx="0.488" transform="translate(876.717 730.43) rotate(180)" fill="#3f3d56"/>
      <rect id="Rectangle_502" data-name="Rectangle 502" width="5" height="3" rx="0.488" transform="translate(1026.835 735.43) rotate(180)" fill="#3f3d56"/>
      <rect id="Rectangle_503" data-name="Rectangle 503" width="5" height="3" rx="0.488" transform="translate(1016.835 735.43) rotate(180)" fill="#3f3d56"/>
      <rect id="Rectangle_504" data-name="Rectangle 504" width="5" height="3" rx="0.488" transform="translate(1006.835 735.43) rotate(180)" fill="#3f3d56"/>
      <rect id="Rectangle_505" data-name="Rectangle 505" width="5" height="3" rx="0.488" transform="translate(996.835 735.43) rotate(180)" fill="#3f3d56"/>
      <rect id="Rectangle_506" data-name="Rectangle 506" width="5" height="3" rx="0.488" transform="translate(986.835 735.43) rotate(180)" fill="#3f3d56"/>
      <rect id="Rectangle_507" data-name="Rectangle 507" width="5" height="3" rx="0.488" transform="translate(976.835 735.43) rotate(180)" fill="#3f3d56"/>
      <rect id="Rectangle_508" data-name="Rectangle 508" width="5" height="3" rx="0.488" transform="translate(966.835 735.43) rotate(180)" fill="#3f3d56"/>
      <rect id="Rectangle_509" data-name="Rectangle 509" width="5" height="3" rx="0.488" transform="translate(956.835 735.43) rotate(180)" fill="#3f3d56"/>
      <rect id="Rectangle_510" data-name="Rectangle 510" width="5" height="3" rx="0.488" transform="translate(946.835 735.43) rotate(180)" fill="#3f3d56"/>
      <rect id="Rectangle_511" data-name="Rectangle 511" width="5" height="3" rx="0.488" transform="translate(936.835 735.43) rotate(180)" fill="#3f3d56"/>
      <rect id="Rectangle_512" data-name="Rectangle 512" width="5" height="3" rx="0.488" transform="translate(926.835 735.43) rotate(180)" fill="#3f3d56"/>
      <rect id="Rectangle_513" data-name="Rectangle 513" width="5" height="3" rx="0.488" transform="translate(916.835 735.43) rotate(180)" fill="#3f3d56"/>
      <rect id="Rectangle_514" data-name="Rectangle 514" width="5" height="3" rx="0.488" transform="translate(906.835 735.43) rotate(180)" fill="#3f3d56"/>
      <rect id="Rectangle_515" data-name="Rectangle 515" width="5" height="3" rx="0.488" transform="translate(896.835 735.43) rotate(180)" fill="#3f3d56"/>
      <rect id="Rectangle_516" data-name="Rectangle 516" width="5" height="3" rx="0.488" transform="translate(886.835 735.43) rotate(180)" fill="#3f3d56"/>
      <rect id="Rectangle_517" data-name="Rectangle 517" width="5" height="3" rx="0.488" transform="translate(876.835 735.43) rotate(180)" fill="#3f3d56"/>
      <rect id="Rectangle_518" data-name="Rectangle 518" width="40" height="3" rx="0.488" transform="translate(978.835 741.43) rotate(180)" fill="#3f3d56"/>
      <path id="Path_2187-463" data-name="Path 2187" d="M468.612,406.811H723.935a1.015,1.015,0,1,0,0-2.031H468.612a1.015,1.015,0,1,0,0,2.031Z" transform="translate(360 90)" fill="#3f3d56"/>
      <ellipse id="Ellipse_406" data-name="Ellipse 406" cx="5.95" cy="6.083" rx="5.95" ry="6.083" transform="translate(1060.604 477.43)" fill="#3f3d56"/>
      <ellipse id="Ellipse_407" data-name="Ellipse 407" cx="5.95" cy="6.083" rx="5.95" ry="6.083" transform="translate(1040.049 477.43)" fill="#3f3d56"/>
      <ellipse id="Ellipse_408" data-name="Ellipse 408" cx="5.95" cy="6.083" rx="5.95" ry="6.083" transform="translate(1019.493 477.43)" fill="#3f3d56"/>
      <path id="Path_2188-464" data-name="Path 2188" d="M479.9,390.044a1.1,1.1,0,0,0,1.09,1.1h14.6a1.105,1.105,0,0,0,0-2.21h-14.6a1.1,1.1,0,0,0-1.09,1.11Z" transform="translate(360 90)" fill="#3f3d56"/>
      <path id="Path_2189-465" data-name="Path 2189" d="M479.9,394.194a1.1,1.1,0,0,0,1.09,1.1h14.6a1.105,1.105,0,0,0,0-2.21h-14.6a1.1,1.1,0,0,0-1.09,1.11Z" transform="translate(360 90)" fill="#3f3d56"/>
      <path id="Path_2190-466" data-name="Path 2190" d="M479.9,398.334a1.1,1.1,0,0,0,1.09,1.11h14.6a1.105,1.105,0,0,0,0-2.21h-14.6A1.1,1.1,0,0,0,479.9,398.334Z" transform="translate(360 90)" fill="#3f3d56"/>
      <rect id="Rectangle_519" data-name="Rectangle 519" width="11.006" height="5.76" rx="2.88" transform="translate(836.286 520.407)" fill="#6c63ff"/>
      <rect id="Rectangle_520" data-name="Rectangle 520" width="11.006" height="5.76" rx="2.88" transform="translate(896.286 520.407)" fill="#6c63ff"/>
      <rect id="Rectangle_521" data-name="Rectangle 521" width="11.006" height="5.76" rx="2.88" transform="translate(913.286 520.407)" fill="#6c63ff"/>
      <rect id="Rectangle_522" data-name="Rectangle 522" width="38.366" height="5.76" rx="2.88" transform="translate(852.606 519.927)" fill="#6c63ff"/>
      <rect id="Rectangle_523" data-name="Rectangle 523" width="38.366" height="5.76" rx="2.88" transform="translate(932.606 519.927)" fill="#6c63ff"/>
      <rect id="Rectangle_524" data-name="Rectangle 524" width="11.006" height="5.76" rx="2.88" transform="translate(852.286 533.407)" fill="#6c63ff"/>
      <rect id="Rectangle_525" data-name="Rectangle 525" width="11.006" height="5.76" rx="2.88" transform="translate(912.286 533.407)" fill="#6c63ff"/>
      <rect id="Rectangle_526" data-name="Rectangle 526" width="11.006" height="5.76" rx="2.88" transform="translate(929.286 533.407)" fill="#6c63ff"/>
      <rect id="Rectangle_527" data-name="Rectangle 527" width="38.366" height="5.76" rx="2.88" transform="translate(868.606 532.927)" fill="#6c63ff"/>
      <rect id="Rectangle_528" data-name="Rectangle 528" width="38.366" height="5.76" rx="2.88" transform="translate(948.606 532.927)" fill="#6c63ff"/>
      <rect id="Rectangle_529" data-name="Rectangle 529" width="11.006" height="5.76" rx="2.88" transform="translate(868.286 546.407)" fill="#6c63ff"/>
      <rect id="Rectangle_530" data-name="Rectangle 530" width="11.006" height="5.76" rx="2.88" transform="translate(928.286 546.407)" fill="#6c63ff"/>
      <rect id="Rectangle_531" data-name="Rectangle 531" width="11.006" height="5.76" rx="2.88" transform="translate(945.286 546.407)" fill="#6c63ff"/>
      <rect id="Rectangle_532" data-name="Rectangle 532" width="38.366" height="5.76" rx="2.88" transform="translate(884.606 545.927)" fill="#6c63ff"/>
      <rect id="Rectangle_533" data-name="Rectangle 533" width="38.366" height="5.76" rx="2.88" transform="translate(964.606 545.927)" fill="#6c63ff"/>
      <rect id="Rectangle_534" data-name="Rectangle 534" width="11.006" height="5.76" rx="2.88" transform="translate(884.286 559.407)" fill="#6c63ff"/>
      <rect id="Rectangle_535" data-name="Rectangle 535" width="11.006" height="5.76" rx="2.88" transform="translate(944.286 559.407)" fill="#6c63ff"/>
      <rect id="Rectangle_536" data-name="Rectangle 536" width="11.006" height="5.76" rx="2.88" transform="translate(961.286 559.407)" fill="#6c63ff"/>
      <rect id="Rectangle_537" data-name="Rectangle 537" width="38.366" height="5.76" rx="2.88" transform="translate(900.606 558.927)" fill="#6c63ff"/>
      <rect id="Rectangle_538" data-name="Rectangle 538" width="11.006" height="5.76" rx="2.88" transform="translate(896.286 611.101)" fill="#6c63ff"/>
      <rect id="Rectangle_539" data-name="Rectangle 539" width="11.006" height="5.76" rx="2.88" transform="translate(913.286 611.101)" fill="#6c63ff"/>
      <rect id="Rectangle_540" data-name="Rectangle 540" width="38.366" height="5.76" rx="2.88" transform="translate(932.606 611.581)" fill="#6c63ff"/>
      <rect id="Rectangle_541" data-name="Rectangle 541" width="11.006" height="5.76" rx="2.88" transform="translate(836.286 611.101)" fill="#6c63ff"/>
      <rect id="Rectangle_542" data-name="Rectangle 542" width="38.366" height="5.76" rx="2.88" transform="translate(852.606 611.581)" fill="#6c63ff"/>
      <rect id="Rectangle_543" data-name="Rectangle 543" width="11.006" height="5.76" rx="2.88" transform="translate(852.286 598.101)" fill="#6c63ff"/>
      <rect id="Rectangle_544" data-name="Rectangle 544" width="11.006" height="5.76" rx="2.88" transform="translate(912.286 598.101)" fill="#6c63ff"/>
      <rect id="Rectangle_545" data-name="Rectangle 545" width="11.006" height="5.76" rx="2.88" transform="translate(929.286 598.101)" fill="#6c63ff"/>
      <rect id="Rectangle_546" data-name="Rectangle 546" width="38.366" height="5.76" rx="2.88" transform="translate(868.606 598.581)" fill="#6c63ff"/>
      <rect id="Rectangle_547" data-name="Rectangle 547" width="11.006" height="5.76" rx="2.88" transform="translate(868.286 585.101)" fill="#6c63ff"/>
      <rect id="Rectangle_548" data-name="Rectangle 548" width="11.006" height="5.76" rx="2.88" transform="translate(928.286 585.101)" fill="#6c63ff"/>
      <rect id="Rectangle_549" data-name="Rectangle 549" width="11.006" height="5.76" rx="2.88" transform="translate(945.286 585.101)" fill="#6c63ff"/>
      <rect id="Rectangle_550" data-name="Rectangle 550" width="38.366" height="5.76" rx="2.88" transform="translate(884.606 585.581)" fill="#6c63ff"/>
      <rect id="Rectangle_551" data-name="Rectangle 551" width="11.006" height="5.76" rx="2.88" transform="translate(884.286 572.101)" fill="#6c63ff"/>
      <rect id="Rectangle_552" data-name="Rectangle 552" width="11.006" height="5.76" rx="2.88" transform="translate(944.286 572.101)" fill="#6c63ff"/>
      <rect id="Rectangle_553" data-name="Rectangle 553" width="11.006" height="5.76" rx="2.88" transform="translate(961.286 572.101)" fill="#6c63ff"/>
      <rect id="Rectangle_554" data-name="Rectangle 554" width="38.366" height="5.76" rx="2.88" transform="translate(900.606 572.581)" fill="#6c63ff"/>
      <path id="Path_2191-467" data-name="Path 2191" d="M509.832,707.816c-.22.11-.44.22-.66.32q-2.085,1.035-4.2,2.04-6.33,3.015-12.82,5.73a285.491,285.491,0,0,1-34.97,12.03c-2-12.47-3.94-41.88-5.8-63.51-.35-4.07-.7-7.86-1.05-11.21a97.15,97.15,0,0,0-1.89-13.08,4.359,4.359,0,0,0-.39-.97c.19,1.73.39,6.89.58,14.05.1,3.35.19,7.14.29,11.21.47,20.82.96,49.15,1.45,65.28-1.39.34-2.79.68-4.19,1-.88.21-1.77.41-2.66.6-1.08.24-2.16.48-3.24.7q-1.7.36-3.39.69a290.078,290.078,0,0,1-56.06,5.44c-1.25,0-2.49-.01-3.74-.02-.38,0-.76-.01-1.15-.02-1.1-.02-2.24-.04-3.4-.07a288.591,288.591,0,0,1-65.84-9.49l.87-64.11.15-11.21.06-4.25a15.181,15.181,0,0,0-.88,4.25c-.35,2.73-.71,6.6-1.07,11.21-1.37,17.76-2.78,46.41-4.24,62.71-17.29-4.92-29.93-9.41-45.73-17.31-.61-.3-1.23-.61-1.84-.92.11-.77.23-1.54.34-2.33,1.79-12.44-.32-28.63,1.66-42.15,1.51-10.43,3.07-20.45,4.64-28.95,1.9-10.23,3.83-18.27,5.74-22.18,2.2-4.51,4.4-8.95,6.53-13.2l2.71-5.39c.48-.95.96-1.89,1.43-2.81,2.14-4.19,4.16-8.06,6.01-11.49,1.3-2.41,2.5-4.59,3.6-6.5,1.29-2.25,2.43-4.11,3.37-5.52a55.306,55.306,0,0,1,29.28-22.21l.3-.08.29.12.33.15,19.06-6.97,8.51-20.49,43.71-2.69,7.06,5.37,3.61,2.75,3.85,2.93,7.08,5.39,2.01.62,2.99.92,20.45,6.28.21-.09.3.08a55.168,55.168,0,0,1,27.36,19.5c.68.88,1.31,1.79,1.92,2.71,1.66,2.46,3.9,6.35,6.54,11.23,1.09,2.01,2.24,4.19,3.45,6.5.73,1.39,7.03,21.05,13.16,41.13,5.73,18.8,11.31,37.97,12.04,42.89.13.91.27,1.83.4,2.74.83,5.69,1.65,11.42,2.44,17.01,1.17,8.29,2.31,16.29,3.4,23.44C509.812,707.686,509.822,707.746,509.832,707.816Z" transform="translate(360 90)" fill="#6c63ff"/>
      <path id="Path_2192-468" data-name="Path 2192" d="M303.59,473.566l-8.5-32.792-7.5,28.3Z" transform="translate(519.92 251.864)" opacity="0.2"/>
      <path id="Path_2193-469" data-name="Path 2193" d="M175.749,635.05a6.416,6.416,0,0,0,6.183,4.331l26.492-.682a6.328,6.328,0,0,0,5.981-4.657l3.749-40.087a9.8,9.8,0,0,0,4.238.871,9.661,9.661,0,1,0-.485-19.317,8.177,8.177,0,0,0-1.736.181,6.548,6.548,0,0,0-4.874-2.1l-40.751,1.052a5.858,5.858,0,0,0-1.005.125,6.365,6.365,0,0,0-4.873,8.265Zm43.173-43.817,2.668-9.553a6.506,6.506,0,0,0,.02-3.375c.129,0,.244-.062.373-.062a6.91,6.91,0,1,1,.324,13.817,6.505,6.505,0,0,1-3.385-.828Z" transform="translate(360 90)" fill="#090814"/>
      <path id="Path_2194-470" data-name="Path 2194" d="M173.541,574.763c.868,4.964,10.629,8.454,22.366,7.847,10.793-.5,19.617-4.287,21.234-8.779a6.024,6.024,0,0,0-1.844-.246l-40.751,1.052A5.852,5.852,0,0,0,173.541,574.763Z" transform="translate(360 90)" fill="#090814"/>
      <path id="Path_2195-471" data-name="Path 2195" d="M198.283,615.324a.625.625,0,0,0,.191-.084l7.281-4.766a.632.632,0,0,0,0-1.058l-7.568-4.957a.632.632,0,0,0-.693,1.058l6.759,4.427-6.472,4.237a.633.633,0,0,0,.5,1.143Z" transform="translate(363.097 86.083)" fill="#f2f2f2"/>
      <path id="Path_2196-472" data-name="Path 2196" d="M190.721,615.743a.633.633,0,0,0,.16-1.162l-6.712-3.848,6.487-4.819a.632.632,0,0,0-.754-1.015l-7.263,5.395a.632.632,0,0,0,.062,1.057l7.55,4.328a.633.633,0,0,0,.47.064Z" transform="translate(359.16 86.194)" fill="#f2f2f2"/>
      <path id="Path_2197-473" data-name="Path 2197" d="M199.817,620.145a.611.611,0,0,0,.173-.073.633.633,0,0,0,.212-.87l-10.322-16.97a.633.633,0,1,0-1.081.659l10.322,16.97a.633.633,0,0,0,.7.284Z" transform="translate(360.839 85.438)" fill="#f2f2f2"/>
      <path id="Path_2198-474" data-name="Path 2198" d="M945.069,708.9c-.61.31-1.23.62-1.84.92-15.8,7.9-28.44,12.39-45.73,17.31-1.46-16.3-2.87-44.95-4.24-62.71-.36-4.61-.72-8.48-1.07-11.21a15.183,15.183,0,0,0-.88-4.25l.06,4.25.15,11.21.87,64.11a288.589,288.589,0,0,1-65.84,9.49c-1.16.03-2.3.05-3.4.07-.39.01-.77.02-1.15.02-1.25.01-2.49.02-3.74.02a289.272,289.272,0,0,1-69.54-8.43c.49-16.13.98-44.46,1.45-65.28.1-4.07.19-7.86.29-11.21.19-7.16.39-12.32.58-14.05a4.36,4.36,0,0,0-.39.97,97.15,97.15,0,0,0-1.89,13.08c-.35,3.35-.7,7.14-1.05,11.21-1.86,21.63-3.8,51.04-5.8,63.51a285.473,285.473,0,0,1-34.97-12.03q-9-3.75-17.68-8.09c1.1-7.2,2.25-15.27,3.43-23.64.92-6.49,1.87-13.16,2.84-19.75,1.5-10.18,52.46-120.11,64.47-123.96l.3-.08.21.09,20.45-6.28,2.99-.92,2.01-.62,7.08-5.39,3.85-2.93,3.61-2.75,7.06-5.37,43.71,2.69,8.51,20.49,19.06,6.97.33-.15.29-.12.3.08a55.307,55.307,0,0,1,29.28,22.21c.94,1.41,2.08,3.27,3.37,5.52,1.1,1.91,2.3,4.09,3.6,6.5,1.85,3.43,3.87,7.3,6.01,11.49.47.92.95,1.86,1.43,2.81q1.335,2.64,2.71,5.39c2.13,4.25,4.33,8.69,6.53,13.2,1.91,3.91,3.84,11.95,5.74,22.18,1.57,8.5,3.13,18.52,4.64,28.95,1.98,13.52-.13,29.71,1.66,42.15C944.839,707.364,944.959,708.134,945.069,708.9Z" transform="translate(360 90)" fill="#6c63ff"/>
      <circle id="Ellipse_409" data-name="Ellipse 409" cx="50.836" cy="50.836" r="50.836" transform="translate(1126.038 497.186)" fill="#ffb9b9"/>
      <path id="Path_2199-475" data-name="Path 2199" d="M575.659,473.566l8.5-32.792,7.5,28.3Z" transform="translate(519.92 251.864)" opacity="0.2"/>
      <path id="Path_2200-476" data-name="Path 2200" d="M961.689,614.064c-3.04,41.88.11,60.32-16.67,94.85a286.162,286.162,0,0,1-47.52,18.22q-2.55.72-5.11,1.4a288.585,288.585,0,0,1-65.84,9.49c-1.16.03-2.3.05-3.4.07-.39.01-.77.02-1.15.02-1.25.01-2.49.02-3.74.02a289.272,289.272,0,0,1-69.54-8.43q-3.42-.84-6.81-1.77a285.473,285.473,0,0,1-34.97-12.03q-9-3.75-17.68-8.09c-1.31-.66-2.62-1.32-3.91-2-6.63-11.66-10.4-25.84-10.48-42.88C679.459,633.574,951.549,588.744,961.689,614.064Z" transform="translate(360 90)" fill="#e6e6e6"/>
      <path id="Path_2201-477" data-name="Path 2201" d="M961.681,621.236c.155-2.593.329-5.271.531-8.06-10.14-25.32-282.23,19.51-286.82,48.87.013,2.692.128,5.3.321,7.855C686.829,640.922,945.318,598.314,961.681,621.236Z" transform="translate(360 90)" opacity="0.2"/>
      <path id="Path_2202-478" data-name="Path 2202" d="M668.1,616.039l22.334-11.167-18.611-50.251-4.9-25.342a19.161,19.161,0,0,0-31.282-10.907h0a19.161,19.161,0,0,0-2.493,26.518l18.207,22.759Z" transform="translate(370.081 118.444)" fill="#ffb9b9"/>
      <path id="Path_2203-479" data-name="Path 2203" d="M690.436,595.567l-29.778,14.889,22.6,70.809a30.977,30.977,0,0,0,22.336,20.716h0a30.977,30.977,0,0,0,33.737-14.2L799.254,585.07a31.62,31.62,0,0,0-10.2-42.982h0a31.62,31.62,0,0,0-45.3,12.765L707.187,632.79Z" transform="translate(360 90)" fill="#6c63ff"/>
      <circle id="Ellipse_410" data-name="Ellipse 410" cx="55.935" cy="55.935" r="55.935" transform="translate(673.493 483.48)" fill="#ffb9b9"/>
      <path id="Path_2204-480" data-name="Path 2204" d="M314.164,410.87c4.548-6.13,11.085-10.488,16.085-16.255,2.743-3.164,5.021-6.75,8.106-9.582,5.73-5.263,13.744-7.42,21.52-7.688a54.3,54.3,0,0,1,44.331,21.038l12.194-7.149,4.817,12.68a7.391,7.391,0,0,1,11.264,9.248c.967-2.989,5.4-3.623,7.842-1.649s3.1,5.488,2.7,8.6a17.32,17.32,0,0,1-13.065,14.326c-5.3,1.182-11.477-.06-15.723,3.332-3.4,2.72-4.431,7.672-7.9,10.3-4.28,3.24-10.329,1.742-15.65,2.458-9.308,1.253-16.678,10.773-15.56,20.1-.842-2.942-1.727-5.97-3.639-8.36s-5.131-4.007-8.062-3.128c-4.846,1.453-5.639,8.058-4.464,12.978,3.115,13.05,14.919,34.144,14.919,34.144-15.328,6.046-33.589.329-45.415-11.144s-17.986-27.719-20.669-43.976C305.516,437.361,305.839,422.091,314.164,410.87Z" transform="translate(360 90)" fill="#090814"/>
      <path id="Path_2205-481" data-name="Path 2205" d="M880.582,486.046c10.642-24.4,4.613-46.85-8.36-58.76v-.01c-5.1-11.43-11.88-20.25-19.64-22.32-3.75-2.41-7.39-5.24-11.43-6.68a14.887,14.887,0,0,0-11.68.53l-2.06-.55c-4.551-.651-.111.381-6.08-1.62-8.78-4.09-16.69-5.92-23.73-5.92-22.96,0-36.54,19.44-40.14,42.94l19.19,5.11,6.67-10.63-3.08,11.59,10.59,2.81c16.12,20.99-3.17,69.41-27.62,96.35q8.73-2.415,17.39-4.08l20.98-30.76-13,28c6.75-.99,15.36-.04,24.77,1.87,3.17-4.14,4.84-9.66,3.2-14.58a55.749,55.749,0,0,1,5.48,16.53c19.86,4.85,46.95,7.34,61.55,9.18C895.378,541.2,895.41,497.706,880.582,486.046Z" transform="translate(360 90)" fill="#090814"/>
      <path id="Path_2206-482" data-name="Path 2206" d="M887.505,403.054c7.795,17.453-7.933,24.96-22.341,24.748-13.019-.192-24.084-9.338-24.748-22.341a23.576,23.576,0,0,1,22.341-24.748C875.76,380.048,882.2,391.166,887.505,403.054Z" transform="translate(360 90)" fill="#090814"/>
      <path id="Path_2207-483" data-name="Path 2207" d="M526.5,693.633l-13.442-23.177,44.7-35.052,18.583-20.282A19.644,19.644,0,0,1,595.51,609.2,20.352,20.352,0,0,1,610.1,623.35h0c3.145,10.7-2.478,22.045-12.712,25.657L568.51,659.2Z" transform="translate(358.634 88.636)" fill="#ffb9b9"/>
      <path id="Path_2208-484" data-name="Path 2208" d="M535.182,686.466l-19.99,16.66-5.39,4.49-.63.52q-2.085,1.035-4.2,2.04-6.33,3.015-12.82,5.73a285.491,285.491,0,0,1-34.97,12.03q-3.39.93-6.81,1.77c-1.39.34-2.79.68-4.19,1-.88.21-1.77.41-2.66.6-1.08.24-2.16.48-3.24.7q-1.7.36-3.39.69a30.963,30.963,0,0,1-9.62-22.44c0-.27,0-.55.01-.83l3.21-82.33,1.42-36.49a31.618,31.618,0,0,1,31.69-30.78c.96,0,1.91.05,2.85.14.68.88,1.31,1.79,1.92,2.71,1.66,2.46,3.9,6.35,6.54,11.23,1.09,2.01,2.24,4.19,3.45,6.5.73,1.39,7.03,21.05,13.16,41.13l-2.7,20.97-4.88,37.8,20.02-13.14,14.1-9.26,1.67,2.79,4.35,7.26,8.4,14Z" transform="translate(360 90)" fill="#6c63ff"/>
      <path id="Path_2209-485" data-name="Path 2209" d="M524.222,662.936c-.01,1.7-.05,3.37-.14,5.02a97.238,97.238,0,0,1-1.58,13.56,79.141,79.141,0,0,1-7.31,21.61c-.46.91-.95,1.81-1.45,2.69-1.29.68-2.6,1.34-3.91,2-.22.11-.44.22-.66.32q-8.355,4.155-17.02,7.77a285.491,285.491,0,0,1-34.97,12.03q-3.39.93-6.81,1.77-6.675,1.65-13.48,2.99a290.068,290.068,0,0,1-56.06,5.44c-1.25,0-2.49-.01-3.74-.02-.38,0-.76-.01-1.15-.02-1.1-.02-2.24-.04-3.4-.07a288.588,288.588,0,0,1-65.84-9.49q-2.565-.675-5.11-1.4a286.165,286.165,0,0,1-47.52-18.22c-16.78-34.53-13.63-52.97-16.67-94.85,6.24-15.59,111.81-4.58,193.09,13.03,22.06,4.78,42.32,10.05,58.33,15.41,16.54,5.53,28.53,11.15,33.23,16.43a7.937,7.937,0,0,1,2.17,4Z" transform="translate(360 90)" fill="#e6e6e6"/>
      <path id="Path_2210-486" data-name="Path 2210" d="M237.408,621.236c-.155-2.593-.329-5.271-.531-8.06,10.14-25.32,282.23,19.51,286.82,48.87-.013,2.692-.128,5.3-.321,7.855C512.26,640.922,253.77,598.314,237.408,621.236Z" transform="translate(360 90)" opacity="0.2"/>
    </g>
  </g>
</svg>