<?xml version="1.0"?>
<svg width="786.81995" height="572.25773" xmlns="http://www.w3.org/2000/svg" xmlns:svg="http://www.w3.org/2000/svg">
 <g class="layer">
  <title>Layer 1</title>
  <circle cx="458.32" cy="74.18" fill="#f2f2f2" id="svg_1" r="26.7"/>
  <path d="m872.04,661.02c39.69,-30.23 58.64,-81.02 46.77,-129.48q-0.44,-1.81 -0.93,-3.6c-7.87,-28.77 -27.33,-56.1 -55.7,-65.29c-23.82,-7.72 -49.82,-1.79 -74.67,-4.86c-48.78,-6.02 -86.6,-45.49 -113.21,-86.82c-26.61,-41.32 -47.06,-87.58 -82.42,-121.72c-58.29,-56.27 -153.36,-68.39 -225.63,-31.76c-72.26,36.63 -118.3,117.9 -116.33,198.9c1.96,80.99 50.04,158.43 119.87,199.51c25.66,15.1 55.32,25.79 84.85,22.05c25.62,-3.25 48.9,-17.02 74.4,-21.1c40.09,-6.43 79.93,11.7 114.6,32.82c34.68,21.12 68.17,46.16 107.58,55.95c38.26,9.51 85.66,-17.82 120.82,-44.6z" fill="#f2f2f2" id="svg_2" transform="translate(-206.59003 -163.87113)"/>
  <path d="m608.43,55.32c-0.87,-0.58 -1.75,-1.13 -2.62,-1.69a380.24,380.24 0 0 0 -80.31,-38.93l-6.54,90.22l-41.46,0l0,-103.39c-2.61,-0.54 -5.24,-1.05 -7.87,-1.53l0,104.92l-49.27,0a102.27,102.27 0 0 1 -102.27,-102.27l0,0c-2.64,0.57 -5.26,1.18 -7.88,1.83l0,100.44l-40.13,0l-6.23,-86.03a380.86,380.86 0 0 0 -81.94,43.53c-0.44,0.3 -0.88,0.61 -1.31,0.91c-2.21,1.55 -4.39,3.13 -6.56,4.73l0,344.19l118.27,0l-2.09,-28.95l-11.5,-158.95l231.59,0l-11.5,158.95l-2.09,28.95l116.96,0l0,-353.45q-613.68,-58.8 -5.25,-3.48zm-298.22,142.78l-33.39,0l-6.17,-85.3l39.56,0l0,85.3zm159.42,0l-56.08,0l0,-1.69a6.18,6.18 0 0 0 -6.19,-6.18l-24.38,0a6.18,6.18 0 0 0 -6.18,6.18l0,1.69l-58.71,0l0,-85.3l151.54,0l0,85.3zm7.87,0l0,-85.3l40.89,0l-6.17,85.3l-34.72,0z" fill="#ff8c00" id="svg_3"/>
  <path d="m0,434.29a289,289 0 0 0 28.12,28.95l730.58,1a289,289 0 0 0 28.12,-28.95l-786.82,-1z" fill="#3f3d56" id="svg_4"/>
  <path d="m702.02,505.46l0,85.71a4.12,4.12 0 0 0 4.12,4.12l127,0a4.12,4.12 0 0 0 4.12,-4.12l0,-85.71a4.12,4.12 0 0 0 -4.12,-4.11l-127,0a4.12,4.12 0 0 0 -4.12,4.11z" fill="#3f3d56" id="svg_5" transform="translate(-206.59003 -163.87113)"/>
  <path d="m705,506.53l0,83.58a2.21,2.21 0 0 0 2.2,2.2l124.89,0a2.21,2.21 0 0 0 2.2,-2.2l0,-83.58a2.21,2.21 0 0 0 -2.2,-2.21l-124.89,0a2.21,2.21 0 0 0 -2.2,2.21z" fill="#6c63ff" id="svg_6" transform="translate(-206.59003 -163.87113)"/>
  <path d="m699.36,607.88a2.47,2.47 0 0 0 1.95,0.93l135.99,0a2.5,2.5 0 0 0 2.45,-3.01l-2.12,-10.03a2.51,2.51 0 0 0 -1.55,-1.82a2.42,2.42 0 0 0 -0.89,-0.17l-131.78,0a2.42,2.42 0 0 0 -0.89,0.17a2.51,2.51 0 0 0 -1.56,1.82l-2.11,10.03a2.5,2.5 0 0 0 0.51,2.08z" fill="#2f2e41" id="svg_7" transform="translate(-206.59003 -163.87113)"/>
  <rect fill="#3f3d56" height="2.51" id="svg_8" rx="0.49" transform="rotate(-180 832.1280584335327,596.8449848890305)" width="4.19" x="830.03" y="595.59"/>
  <rect fill="#3f3d56" height="2.51" id="svg_9" rx="0.49" transform="rotate(-180 823.7510442733765,596.8449848890305)" width="4.19" x="821.66" y="595.59"/>
  <rect fill="#3f3d56" height="2.51" id="svg_10" rx="0.49" transform="rotate(-180 815.3740911483765,596.8449848890305)" width="4.19" x="813.28" y="595.59"/>
  <rect fill="#3f3d56" height="2.51" id="svg_11" rx="0.49" transform="rotate(-180 806.9970769882202,596.8449848890305)" width="4.19" x="804.9" y="595.59"/>
  <rect fill="#3f3d56" height="2.51" id="svg_12" rx="0.49" transform="rotate(-180 798.6201238632202,596.8449848890305)" width="4.19" x="796.53" y="595.59"/>
  <rect fill="#3f3d56" height="2.51" id="svg_13" rx="0.49" transform="rotate(-180 790.243109703064,596.8449848890305)" width="4.19" x="788.15" y="595.59"/>
  <rect fill="#3f3d56" height="2.51" id="svg_14" rx="0.49" transform="rotate(-180 781.866156578064,596.8449848890305)" width="4.19" x="779.77" y="595.59"/>
  <rect fill="#3f3d56" height="2.51" id="svg_15" rx="0.49" transform="rotate(-180 773.4891424179077,596.8449848890305)" width="4.19" x="771.39" y="595.59"/>
  <rect fill="#3f3d56" height="2.51" id="svg_16" rx="0.49" transform="rotate(-180 765.1121892929077,596.8449848890305)" width="4.19" x="763.02" y="595.59"/>
  <rect fill="#3f3d56" height="2.51" id="svg_17" rx="0.49" transform="rotate(-180 756.7351751327515,596.8449848890305)" width="4.19" x="754.64" y="595.59"/>
  <rect fill="#3f3d56" height="2.51" id="svg_18" rx="0.49" transform="rotate(-180 748.3582220077515,596.8449848890305)" width="4.19" x="746.26" y="595.59"/>
  <rect fill="#3f3d56" height="2.51" id="svg_19" rx="0.49" transform="rotate(-180 739.9812078475952,596.8449848890305)" width="4.19" x="737.89" y="595.59"/>
  <rect fill="#3f3d56" height="2.51" id="svg_20" rx="0.49" transform="rotate(-180 731.6042547225952,596.8449848890305)" width="4.19" x="729.51" y="595.59"/>
  <rect fill="#3f3d56" height="2.51" id="svg_21" rx="0.49" transform="rotate(-180 723.227240562439,596.8449848890305)" width="4.19" x="721.13" y="595.59"/>
  <rect fill="#3f3d56" height="2.51" id="svg_22" rx="0.49" transform="rotate(-180 714.850287437439,596.8449848890305)" width="4.19" x="712.76" y="595.59"/>
  <rect fill="#3f3d56" height="2.51" id="svg_23" rx="0.49" transform="rotate(-180 706.473334312439,596.8449848890305)" width="4.19" x="704.38" y="595.59"/>
  <rect fill="#3f3d56" height="2.51" id="svg_24" rx="0.49" transform="rotate(-180 832.226996421814,601.0334614515305)" width="4.19" x="830.13" y="599.78"/>
  <rect fill="#3f3d56" height="2.51" id="svg_25" rx="0.49" transform="rotate(-180 823.850043296814,601.0334614515305)" width="4.19" x="821.76" y="599.78"/>
  <rect fill="#3f3d56" height="2.51" id="svg_26" rx="0.49" transform="rotate(-180 815.4730291366577,601.0334614515305)" width="4.19" x="813.38" y="599.78"/>
  <rect fill="#3f3d56" height="2.51" id="svg_27" rx="0.49" transform="rotate(-180 807.0960760116577,601.0334614515305)" width="4.19" x="805" y="599.78"/>
  <rect fill="#3f3d56" height="2.51" id="svg_28" rx="0.49" transform="rotate(-180 798.7191228866577,601.0334614515305)" width="4.19" x="796.62" y="599.78"/>
  <rect fill="#3f3d56" height="2.51" id="svg_29" rx="0.49" transform="rotate(-180 790.3421087265015,601.0334614515305)" width="4.19" x="788.25" y="599.78"/>
  <rect fill="#3f3d56" height="2.51" id="svg_30" rx="0.49" transform="rotate(-180 781.9650945663452,601.0334614515305)" width="4.19" x="779.87" y="599.78"/>
  <rect fill="#3f3d56" height="2.51" id="svg_31" rx="0.49" transform="rotate(-180 773.5881414413452,601.0334614515305)" width="4.19" x="771.49" y="599.78"/>
  <rect fill="#3f3d56" height="2.51" id="svg_32" rx="0.49" transform="rotate(-180 765.2111883163452,601.0334614515305)" width="4.19" x="763.12" y="599.78"/>
  <rect fill="#3f3d56" height="2.51" id="svg_33" rx="0.49" transform="rotate(-180 756.834174156189,601.0334614515305)" width="4.19" x="754.74" y="599.78"/>
  <rect fill="#3f3d56" height="2.51" id="svg_34" rx="0.49" transform="rotate(-180 748.457221031189,601.0334614515305)" width="4.19" x="746.36" y="599.78"/>
  <rect fill="#3f3d56" height="2.51" id="svg_35" rx="0.49" transform="rotate(-180 740.0802068710327,601.0334614515305)" width="4.19" x="737.99" y="599.78"/>
  <rect fill="#3f3d56" height="2.51" id="svg_36" rx="0.49" transform="rotate(-180 731.7032537460327,601.0334614515305)" width="4.19" x="729.61" y="599.78"/>
  <rect fill="#3f3d56" height="2.51" id="svg_37" rx="0.49" transform="rotate(-180 723.3262395858765,601.0334614515305)" width="4.19" x="721.23" y="599.78"/>
  <rect fill="#3f3d56" height="2.51" id="svg_38" rx="0.49" transform="rotate(-180 714.9492864608765,601.0334614515305)" width="4.19" x="712.86" y="599.78"/>
  <rect fill="#3f3d56" height="2.51" id="svg_39" rx="0.49" transform="rotate(-180 706.5722723007202,601.0334614515305)" width="4.19" x="704.48" y="599.78"/>
  <rect fill="#3f3d56" height="2.51" id="svg_40" rx="0.49" transform="rotate(-180 777.3577861785889,606.0596455335617)" width="33.51" x="760.6" y="604.8"/>
  <rect fill="#fff" height="3.12" id="svg_41" rx="1.56" width="5.97" x="515.63" y="358.74"/>
  <rect fill="#fff" height="3.12" id="svg_42" rx="1.56" width="5.97" x="548.15" y="358.74"/>
  <rect fill="#fff" height="3.12" id="svg_43" rx="1.56" width="5.97" x="557.37" y="358.74"/>
  <rect fill="#fff" height="3.12" id="svg_44" rx="1.56" width="20.8" x="524.48" y="358.48"/>
  <rect fill="#fff" height="3.12" id="svg_45" rx="1.56" width="20.8" x="567.84" y="358.48"/>
  <rect fill="#fff" height="3.12" id="svg_46" rx="1.56" width="5.97" x="524.3" y="365.78"/>
  <rect fill="#fff" height="3.12" id="svg_47" rx="1.56" width="5.97" x="556.83" y="365.78"/>
  <rect fill="#fff" height="3.12" id="svg_48" rx="1.56" width="5.97" x="566.04" y="365.78"/>
  <rect fill="#fff" height="3.12" id="svg_49" rx="1.56" width="20.8" x="533.15" y="365.52"/>
  <rect fill="#fff" height="3.12" id="svg_50" rx="1.56" width="20.8" x="576.51" y="365.52"/>
  <rect fill="#fff" height="3.12" id="svg_51" rx="1.56" width="5.97" x="532.98" y="372.83"/>
  <rect fill="#fff" height="3.12" id="svg_52" rx="1.56" width="5.97" x="565.5" y="372.83"/>
  <rect fill="#fff" height="3.12" id="svg_53" rx="1.56" width="5.97" x="574.71" y="372.83"/>
  <rect fill="#fff" height="3.12" id="svg_54" rx="1.56" width="20.8" x="541.82" y="372.57"/>
  <rect fill="#fff" height="3.12" id="svg_55" rx="1.56" width="20.8" x="585.19" y="372.57"/>
  <rect fill="#fff" height="3.12" id="svg_56" rx="1.56" width="5.97" x="541.65" y="379.88"/>
  <rect fill="#fff" height="3.12" id="svg_57" rx="1.56" width="5.97" x="574.17" y="379.88"/>
  <rect fill="#fff" height="3.12" id="svg_58" rx="1.56" width="5.97" x="583.39" y="379.88"/>
  <rect fill="#fff" height="3.12" id="svg_59" rx="1.56" width="20.8" x="550.5" y="379.62"/>
  <rect fill="#fff" height="3.12" id="svg_60" rx="1.56" width="5.97" x="548.15" y="407.9"/>
  <rect fill="#fff" height="3.12" id="svg_61" rx="1.56" width="5.97" x="557.37" y="407.9"/>
  <rect fill="#fff" height="3.12" id="svg_62" rx="1.56" width="20.8" x="567.84" y="408.16"/>
  <rect fill="#fff" height="3.12" id="svg_63" rx="1.56" width="5.97" x="515.63" y="407.9"/>
  <rect fill="#fff" height="3.12" id="svg_64" rx="1.56" width="20.8" x="524.48" y="408.16"/>
  <rect fill="#fff" height="3.12" id="svg_65" rx="1.56" width="5.97" x="524.3" y="400.85"/>
  <rect fill="#fff" height="3.12" id="svg_66" rx="1.56" width="5.97" x="556.83" y="400.85"/>
  <rect fill="#fff" height="3.12" id="svg_67" rx="1.56" width="5.97" x="566.04" y="400.85"/>
  <rect fill="#fff" height="3.12" id="svg_68" rx="1.56" width="20.8" x="533.15" y="401.11"/>
  <rect fill="#fff" height="3.12" id="svg_69" rx="1.56" width="5.97" x="532.98" y="393.8"/>
  <rect fill="#fff" height="3.12" id="svg_70" rx="1.56" width="5.97" x="565.5" y="393.8"/>
  <rect fill="#fff" height="3.12" id="svg_71" rx="1.56" width="5.97" x="574.71" y="393.8"/>
  <rect fill="#fff" height="3.12" id="svg_72" rx="1.56" width="20.8" x="541.82" y="394.06"/>
  <rect fill="#fff" height="3.12" id="svg_73" rx="1.56" width="5.97" x="541.65" y="386.76"/>
  <rect fill="#fff" height="3.12" id="svg_74" rx="1.56" width="5.97" x="574.17" y="386.76"/>
  <rect fill="#fff" height="3.12" id="svg_75" rx="1.56" width="5.97" x="583.39" y="386.76"/>
  <rect fill="#fff" height="3.12" id="svg_76" rx="1.56" width="20.8" x="550.5" y="387.02"/>
  <path d="m711.51,654.35l-13.35,-21.1l41.9,-33.4l17.3,-19.16a19.16,19.16 0 0 1 32.41,6.83l0,0a19.16,19.16 0 0 1 -11.57,23.99l-27.35,10.07l-39.34,32.77z" fill="#ffb6b6" id="svg_77" transform="translate(-206.59003 -163.87113)"/>
  <path d="m398.28,501.35l0,102.56l71.85,0l0,-102.56a3.45,3.45 0 0 0 -2.43,-3.3a3.17,3.17 0 0 0 -1.03,-0.16l-64.92,0a3.46,3.46 0 0 0 -3.47,3.46zm28.04,35.24a7.67,7.67 0 0 1 15.34,0l0,11.9a7.67,7.67 0 0 1 -15.34,0l0,-11.9z" fill="#2f2e41" id="svg_78" transform="translate(-206.59003 -163.87113)"/>
  <path d="m398.06,600.63l0,9.89a1.95,1.95 0 0 0 1.93,1.94l68.43,0a1.94,1.94 0 0 0 1.93,-1.94l0,-9.89l-72.29,0z" fill="#3f3d56" id="svg_79" transform="translate(-206.59003 -163.87113)"/>
  <path d="m285.25,346.83l0,187.26a9.01,9.01 0 0 0 9,9l277.5,0a9.01,9.01 0 0 0 9,-9l0,-187.26a9.01,9.01 0 0 0 -9,-8.99l-277.5,0a9.01,9.01 0 0 0 -9,8.99z" fill="#3f3d56" id="svg_80" transform="translate(-206.59003 -163.87113)"/>
  <path d="m291.76,349.16l0,182.62a4.82,4.82 0 0 0 4.81,4.81l272.87,0a4.82,4.82 0 0 0 4.81,-4.81l0,-182.62a4.82,4.82 0 0 0 -4.81,-4.82l-272.87,0a4.82,4.82 0 0 0 -4.81,4.82z" fill="#fff" id="svg_81" transform="translate(-206.59003 -163.87113)"/>
  <path d="m342.4,611.79a2.95,2.95 0 0 0 2.32,1.11l162.34,0a2.99,2.99 0 0 0 2.92,-3.6l-2.52,-11.97a2.99,2.99 0 0 0 -1.86,-2.17a2.89,2.89 0 0 0 -1.06,-0.2l-157.31,0a2.89,2.89 0 0 0 -1.06,0.2a2.99,2.99 0 0 0 -1.86,2.17l-2.52,11.97a2.98,2.98 0 0 0 0.61,2.49z" fill="#2f2e41" id="svg_82" transform="translate(-206.59003 -163.87113)"/>
  <path d="m560.58,369.5l-255.32,0a1.02,1.02 0 0 1 0,-2.03l255.32,0a1.02,1.02 0 0 1 0,2.03z" fill="#3f3d56" id="svg_83" transform="translate(-206.59003 -163.87113)"/>
  <ellipse cx="116.05" cy="192.33" fill="#3f3d56" id="svg_84" rx="5.95" ry="6.08"/>
  <ellipse cx="136.61" cy="192.33" fill="#3f3d56" id="svg_85" rx="5.95" ry="6.08"/>
  <ellipse cx="157.16" cy="192.33" fill="#3f3d56" id="svg_86" rx="5.95" ry="6.08"/>
  <path d="m548.21,351.62l-14.6,0a1.11,1.11 0 0 0 0,2.21l14.6,0a1.11,1.11 0 0 0 0,-2.21z" fill="#3f3d56" id="svg_87" transform="translate(-206.59003 -163.87113)"/>
  <path d="m548.21,355.77l-14.6,0a1.11,1.11 0 0 0 0,2.21l14.6,0a1.11,1.11 0 0 0 0,-2.21z" fill="#3f3d56" id="svg_88" transform="translate(-206.59003 -163.87113)"/>
  <path d="m548.21,359.92l-14.6,0a1.11,1.11 0 0 0 0,2.21l14.6,0a1.11,1.11 0 0 0 0,-2.21z" fill="#3f3d56" id="svg_89" transform="translate(-206.59003 -163.87113)"/>
  <path d="m693.6,441.1a6.42,6.42 0 0 0 6.18,4.33l26.49,-0.68a6.33,6.33 0 0 0 5.98,-4.66l3.75,-40.08a9.79,9.79 0 0 0 4.24,0.87a9.66,9.66 0 1 0 -0.49,-19.32a8.18,8.18 0 0 0 -1.73,0.18a6.55,6.55 0 0 0 -4.88,-2.1l-40.75,1.05a5.85,5.85 0 0 0 -1,0.13a6.36,6.36 0 0 0 -4.88,8.26l7.09,52.02zm43.17,-43.81l2.67,-9.56a6.51,6.51 0 0 0 0.02,-3.37c0.13,0 0.24,-0.06 0.37,-0.06a6.91,6.91 0 0 1 0.32,13.81a6.51,6.51 0 0 1 -3.38,-0.82z" fill="#ff8c00" id="svg_90" transform="matrix(1 0 0 1 0 0)"/>
  <path d="m897.98,544.69c0.87,4.96 10.63,8.45 22.36,7.84c10.8,-0.49 19.62,-4.28 21.24,-8.77a6.03,6.03 0 0 0 -1.85,-0.25l-40.75,1.05a5.85,5.85 0 0 0 -1,0.13z" fill="#3f3d56" id="svg_91" transform="translate(-206.59003 -163.87113)"/>
  <path d="m922.49,582.94a0.5,0.5 0 0 0 0.16,-0.06l5.75,-3.77a0.5,0.5 0 0 0 0,-0.83l-5.98,-3.92a0.5,0.5 0 1 0 -0.55,0.84l5.34,3.49l-5.11,3.35a0.5,0.5 0 0 0 0.39,0.9z" fill="#6c63ff" id="svg_92" transform="translate(-206.59003 -163.87113)"/>
  <path d="m913.41,583.36a0.5,0.5 0 0 0 0.12,-0.92l-5.3,-3.04l5.13,-3.8a0.5,0.5 0 1 0 -0.6,-0.8l-5.74,4.26a0.5,0.5 0 0 0 0.05,0.83l5.97,3.42a0.5,0.5 0 0 0 0.37,0.05z" fill="#6c63ff" id="svg_93" transform="translate(-206.59003 -163.87113)"/>
  <path d="m921.92,586.24a0.48,0.48 0 0 0 0.14,-0.05a0.5,0.5 0 0 0 0.17,-0.69l-8.16,-13.41a0.5,0.5 0 0 0 -0.85,0.52l8.15,13.41a0.5,0.5 0 0 0 0.55,0.22z" fill="#6c63ff" id="svg_94" transform="translate(-206.59003 -163.87113)"/>
  <rect fill="#6c63ff" height="10.85" id="svg_95" rx="3.26" width="50.72" x="209.38" y="260.83"/>
  <rect fill="#e6e6e6" height="10.85" id="svg_96" rx="3.26" width="102.24" x="183.63" y="282.52"/>
  <rect fill="#e6e6e6" height="10.85" id="svg_97" rx="3.26" width="102.24" x="183.63" y="304.21"/>
  <path d="m497.3,540.72l0.22,0.68l0.01,0.02l6.52,19.84l7.51,22.86l14.12,42.96l0.14,6.68l0,0.02l1.05,53.69l-2.91,7.27l3.27,11.94s-1.5,-18.04 -9.58,-7.68c-4.57,5.88 -9.92,11.91 -14.31,17.55q9.6,3.89 19.5,7.03c1.43,0.46 2.87,0.89 4.3,1.32q0.47,0.14 0.93,0.28a266.86,266.86 0 0 0 67.35,10.82c1.18,0.04 2.35,0.06 3.48,0.08c0.4,0.01 0.79,0.03 1.17,0.03c1.28,0.01 2.55,0.02 3.82,0.02q3.87,0 7.7,-0.12a266.85,266.85 0 0 0 56.1,-7.58c-0.13,-7.59 -0.47,-16.45 -0.96,-25.92c-0.23,-4.64 -5.35,-9.67 -5.66,-14.53c-0.22,-3.65 4.38,-7.09 4.14,-10.79c-1.55,-22.83 -3.49,-14.07 -4.93,-30.23q-0.22,-2.38 -0.41,-4.55c-0.92,-10.39 -1.56,-16.88 -1.56,-16.88l6.14,-38.68l9.64,-60.73l-0.75,-1.23l-0.83,-0.41l-50.84,-25.16l-2.76,-7.07a10.98,10.98 0 0 0 -10.14,-6.95l-33.5,-0.14a10.93,10.93 0 0 0 -8.91,4.53l-9.07,12.56l-59.99,38.47z" fill="#3f3d56" id="svg_98" transform="translate(-206.59003 -163.87113)"/>
  <path d="m533.41,617.52l-7.59,16.24l-5.18,11.09l-8.91,46.64l-4.46,4.74l-3.82,-16.76l-40,8.88c-1.31,-7.29 -0.35,0.24 -1.16,-7.75c0.23,-0.23 0.47,-0.46 0.71,-0.69c0.64,-0.59 1.17,-1.15 1.16,-1.68c-0.45,-27.59 0.91,-74.53 12.35,-102.97a60.05,60.05 0 0 1 7.02,-13.11c0.23,-0.31 0.45,-0.61 0.66,-0.92c5.27,-7.38 8.61,-14.65 13.33,-19.82l0,-0.01a0.53,0.53 0 0 0 0.08,-0.08a0.16,0.16 0 0 0 0.04,-0.03l32.45,-17.21l1.39,39.11l0.99,28.11l0.94,26.22z" fill="#3f3d56" id="svg_99" transform="translate(-206.59003 -163.87113)"/>
  <path d="m650.39,622.14l9.48,20.27l3.3,7.06l8.91,46.64l4.45,4.73l3.83,-16.76l1.8,-0.37l32.46,-6.72l9.46,30.05a17.98,17.98 0 0 0 -3.26,-22.51c-0.65,-0.59 -1.19,-1.15 -1.17,-1.69c0.53,-32.45 -1.45,-91.69 -19.37,-116.07c-5.69,-7.74 -9.11,-15.44 -14.08,-20.83c-0.01,-0.01 -0.01,-0.03 -0.03,-0.03l-12.09,-19.8l-0.74,-1.21l-0.83,-0.42l-22.12,97.66z" fill="#3f3d56" id="svg_100" transform="translate(-206.59003 -163.87113)"/>
  <circle cx="386.4" cy="267.2" data-name="Ellipse 5" fill="#ffb6b6" id="a657ec4b-47ce-4d2a-9c58-81a811696ca9" r="44.56"/>
  <path d="m653.21,399.95a3.76,3.76 0 0 0 -2.69,-1.19l0.67,-1.86a3.53,3.53 0 0 0 -3.96,-4.7l-2.44,0.47l0.23,-1.63a3.53,3.53 0 0 0 -4.73,-3.82a3.77,3.77 0 0 1 -3.24,-0.23a3.85,3.85 0 0 1 -1.92,-2.61l-0.85,-4.1l-0.09,-0.22c-4.14,-6.9 -12.1,-11.92 -21.84,-13.76c-8.67,-1.65 -17.56,-0.81 -26.13,-0.02c-3.4,0.32 -7.24,0.68 -10.44,2.64c-2.72,1.68 -5.02,5.04 -4.55,8.43c-8.45,-2.59 -17.51,2.58 -22,9.1c-5.32,7.76 -6.19,17.48 -6.33,25.08c-0.38,17.98 3.33,32.69 11,43.73c0.56,0.8 0.7,2.47 1.81,3.03l-0.23,-0.37c1.24,0.62 2.5,1.62 2.03,2.69c-1.35,3.08 7.62,9.89 13.94,12.14c11.53,4.11 26.86,3.76 37.64,2.28l0.38,-2.55c3.89,-0.53 6.63,-1.54 7.4,-3.12c1.36,-1.16 2.52,-2.2 3.53,-3.16l0.01,-0.01c0.02,-0.02 0.06,-0.05 0.08,-0.07c4.87,-4.67 6,-7.33 6.51,-11.38c0.49,-3.97 -0.38,-8 -1.27,-11.63c18.74,2.9 -7.38,-19.96 10.08,-24.38a5.43,5.43 0 0 1 0.61,-0.15c0.51,-0.12 1.02,-0.24 1.51,-0.38a26.45,26.45 0 0 0 6.72,-2.87c4.88,-2.97 6.49,-6.91 9.01,-11.35a3.43,3.43 0 0 0 -0.45,-4.03z" fill="#2f2e41" id="svg_101" transform="translate(-206.59003 -163.87113)"/>
  <path d="m543.99,461.44c-0.01,1.75 -0.03,4.2 -0.11,7.23q-0.01,0.63 -0.03,1.29c-0.13,5.57 -0.26,10.24 -0.47,15.43c-0.01,0.36 -0.02,0.71 -0.04,1.07c-0.28,7.24 -0.72,15.67 -1.48,29.02c-1.41,24.66 -3.87,3.39 -6.34,12.04c-0.12,0.43 -0.25,0.94 -0.37,1.54a27.92,27.92 0 0 1 -1.88,6.33c-1.31,0.78 -2.66,1.53 -3.99,2.28c-3.79,2.11 -7.64,4.14 -11.52,6.07c-2.18,1.08 -4.37,2.14 -6.57,3.16c-0.35,0.16 -0.69,0.32 -1.03,0.47a270.89,270.89 0 0 1 -34.75,13.26c-2.32,0.7 -4.63,1.38 -6.97,2.01c-2.44,0.68 -4.88,1.32 -7.35,1.92a266.89,266.89 0 0 1 -56.09,7.59c-2.55,0.08 -5.12,0.11 -7.7,0.11c-1.28,0 -2.54,-0.01 -3.82,-0.02c-0.39,0 -0.78,-0.01 -1.17,-0.02c-1.13,-0.03 -2.3,-0.05 -3.48,-0.08a266.66,266.66 0 0 1 -67.35,-10.83l-0.93,-0.27c-1.44,-0.44 -2.87,-0.87 -4.3,-1.33q-9.9,-3.14 -19.51,-7.02q-7.33,-2.96 -14.5,-6.34a0.34,0.34 0 0 1 -0.12,-0.06c-1,-0.46 -2.01,-0.94 -3.01,-1.43c-0.13,-0.07 -0.27,-0.14 -0.41,-0.21q-5.59,-2.73 -11.07,-5.72c-3.07,-7.05 -7.39,-8.4 -10.07,-14.6a25.87,25.87 0 0 1 -1.68,-5.74c0,-0.02 -0.01,-0.04 -0.01,-0.07c0.28,3.72 -1.19,-6.6 -0.01,-0.04c-0.01,-0.12 -0.02,-0.25 -0.03,-0.4c-0.03,-0.36 -0.07,-0.8 -0.13,-1.35c-3.43,-33.49 -3.21,-71.79 -4.7,-103.35q-0.15,-3.06 -0.31,-5.86c-0.03,-0.62 -0.07,-1.23 -0.11,-1.83c0.07,-0.18 0.15,-0.37 0.24,-0.55a1,1 0 0 1 0.07,-0.15a1.62,1.62 0 0 1 0.1,-0.18c0.02,-0.03 0.05,-0.07 0.07,-0.1a0.92,0.92 0 0 1 0.05,-0.1c0.09,-0.14 0.19,-0.29 0.3,-0.43c0.05,-0.06 0.09,-0.11 0.14,-0.16a0.81,0.81 0 0 1 0.12,-0.14a0.64,0.64 0 0 1 0.11,-0.13c0.04,-0.04 0.08,-0.09 0.13,-0.14a0.3,0.3 0 0 1 0.08,-0.08a2.03,2.03 0 0 1 0.26,-0.25a9.62,9.62 0 0 1 1.14,-0.9c0.14,-0.09 0.29,-0.18 0.43,-0.28a19.14,19.14 0 0 1 3.17,-1.52c0.38,-0.14 0.76,-0.27 1.17,-0.41c0.15,-0.04 0.29,-0.09 0.44,-0.14c0.22,-0.07 0.44,-0.14 0.67,-0.19c1.14,-0.34 2.37,-0.63 3.7,-0.9c0.16,-0.03 0.33,-0.06 0.5,-0.1c0.24,-0.05 0.49,-0.09 0.74,-0.13c0.34,-0.06 0.69,-0.12 1.04,-0.18c2.97,-0.47 6.34,-0.82 10.06,-1.05q0.53,-0.03 1.05,-0.06c0.41,-0.02 0.82,-0.04 1.24,-0.06c0.35,-0.02 0.71,-0.03 1.07,-0.04c0.35,-0.02 0.71,-0.03 1.08,-0.04c1.01,-0.03 2.05,-0.06 3.11,-0.08c3.02,-0.06 6.2,-0.04 9.54,0.03c1.55,0.04 3.13,0.08 4.75,0.15c0.11,0 0.21,0.01 0.31,0.01c1.41,0.05 2.83,0.11 4.29,0.19c1.02,0.05 2.05,0.1 3.08,0.16c0.97,0.06 1.95,0.12 2.94,0.19c0.77,0.04 1.54,0.1 2.32,0.15c0.66,0.05 1.32,0.1 1.98,0.14l0.9,0.06c0.49,0.04 0.98,0.07 1.48,0.12c1.1,0.09 2.2,0.18 3.32,0.27c1.11,0.1 2.24,0.2 3.37,0.3s2.27,0.21 3.41,0.32c0.12,0.01 0.23,0.02 0.34,0.03c1.04,0.11 2.08,0.21 3.13,0.32c0.24,0.02 0.49,0.04 0.73,0.07c1,0.1 2.02,0.22 3.03,0.32c0.31,0.04 0.62,0.07 0.93,0.1c0.8,0.09 1.58,0.16 2.37,0.26c1.05,0.12 2.12,0.23 3.16,0.37c0.81,0.09 1.62,0.18 2.43,0.28c1.27,0.15 2.56,0.31 3.85,0.48c0.49,0.06 0.98,0.12 1.47,0.19c3.68,0.46 7.4,0.97 11.18,1.5c5.73,0.81 11.55,1.69 17.41,2.64q8.81,1.42 17.71,3.01c1.5,0.27 3,0.54 4.51,0.82q1.02,0.19 2.04,0.39c1.16,0.21 2.32,0.43 3.48,0.65c1.16,0.22 2.32,0.44 3.48,0.67c1.38,0.27 2.77,0.54 4.15,0.81c9.09,1.8 18.13,3.72 26.95,5.73c1.45,0.33 2.9,0.67 4.34,1q4.32,1 8.56,2.04c0.78,0.18 1.55,0.37 2.32,0.56c1.92,0.48 3.84,0.96 5.73,1.45l0.33,0.09c1.39,0.34 2.75,0.69 4.11,1.05q4.82,1.26 9.47,2.55q3.09,0.85 6.11,1.73c3.01,0.87 5.96,1.75 8.83,2.64c0.71,0.22 1.42,0.44 2.12,0.65c2.1,0.65 4.17,1.31 6.18,1.97c1.6,0.52 3.16,1.05 4.7,1.58q2.31,0.79 4.53,1.59c0.95,0.34 1.89,0.7 2.83,1.04c1.35,0.5 2.68,1 3.98,1.5c0.4,0.15 0.79,0.31 1.18,0.46c0.25,0.11 0.49,0.2 0.73,0.3c0.47,0.19 0.95,0.37 1.41,0.56c0.47,0.18 0.93,0.37 1.39,0.57c0.45,0.18 0.91,0.37 1.35,0.56c0.45,0.18 0.89,0.37 1.33,0.57c0.37,0.15 0.73,0.31 1.08,0.47c0.71,0.31 1.42,0.62 2.11,0.94c0.34,0.16 0.68,0.31 1.02,0.47l0.78,0.36c0.11,0.06 0.22,0.11 0.33,0.16c0.25,0.12 0.51,0.25 0.76,0.37c0.58,0.27 1.15,0.56 1.71,0.83c0.75,0.38 1.48,0.76 2.18,1.13c0.71,0.38 1.4,0.76 2.06,1.13c0.11,0.06 0.21,0.12 0.32,0.18c0.15,0.08 0.3,0.17 0.45,0.25c0.51,0.29 1,0.59 1.49,0.88c0.96,0.59 1.87,1.17 2.72,1.75c0.19,0.13 0.37,0.26 0.56,0.38c0.63,0.45 1.23,0.89 1.79,1.34c0,0.01 0,0.01 0.01,0.01c0.19,0.14 0.37,0.29 0.55,0.43c0.15,0.14 0.31,0.26 0.46,0.4c0.52,0.45 1,0.88 1.44,1.32a5.67,5.67 0 0 1 0.42,0.43a1.21,1.21 0 0 1 0.16,0.16c0.2,0.2 0.38,0.4 0.55,0.6a0.55,0.55 0 0 1 0.07,0.09c0.24,0.28 0.46,0.56 0.67,0.84c0.1,0.14 0.21,0.28 0.3,0.42c0.12,0.17 0.24,0.35 0.34,0.52c0.09,0.14 0.17,0.29 0.25,0.43a7.26,7.26 0 0 1 0.54,1.13a5.24,5.24 0 0 1 0.27,0.82a5.84,5.84 0 0 1 0.17,0.81z" fill="#ff8c00" id="svg_102"/>
  <path d="m543.99,461.44c-0.01,1.75 -0.03,4.2 -0.11,7.23c-0.01,0.42 -0.03,0.85 -0.04,1.29c-0.1,4.25 -0.25,9.5 -0.46,15.43c-0.01,0.36 -0.02,0.71 -0.04,1.07c-0.28,7.24 -0.72,15.67 -1.48,29.02c-1.41,24.66 -3.87,3.39 -6.34,12.04c-6.86,-4.22 -14.38,-8.64 -22.42,-13.18q-2.17,-1.23 -4.39,-2.47c-16.08,-8.97 -34.04,-18.37 -52.79,-27.68c-0.74,-0.37 -1.49,-0.74 -2.23,-1.1c-42.95,-21.23 -89.83,-41.88 -127.81,-55.66c-7.33,-2.66 -14.33,-5.06 -20.91,-7.17c-13.86,-4.43 -25.84,-7.53 -35.06,-8.87c-9.6,-1.4 -16.23,-0.9 -18.91,1.99q-0.15,-3.06 -0.31,-5.86q-0.06,-0.93 -0.12,-1.83c0.06,-0.17 0.14,-0.32 0.22,-0.48c0.01,-0.03 0.02,-0.05 0.03,-0.07a1,1 0 0 1 0.07,-0.15a1.62,1.62 0 0 1 0.1,-0.18a1.06,1.06 0 0 1 0.12,-0.2c0.09,-0.14 0.19,-0.29 0.3,-0.43a3.48,3.48 0 0 1 0.26,-0.3a0.64,0.64 0 0 1 0.11,-0.13c0.04,-0.04 0.08,-0.09 0.13,-0.14a0.3,0.3 0 0 1 0.08,-0.08a2.03,2.03 0 0 1 0.26,-0.25a9.62,9.62 0 0 1 1.14,-0.9c0.14,-0.09 0.29,-0.18 0.43,-0.28a19.14,19.14 0 0 1 3.17,-1.52c0.38,-0.14 0.76,-0.27 1.17,-0.41c0.15,-0.04 0.29,-0.09 0.44,-0.14c0.22,-0.07 0.44,-0.14 0.67,-0.19c1.14,-0.34 2.37,-0.63 3.7,-0.9c0.4,-0.08 0.82,-0.16 1.24,-0.23c0.34,-0.06 0.69,-0.12 1.04,-0.18c2.97,-0.47 6.34,-0.82 10.06,-1.05q0.53,-0.03 1.05,-0.06c0.41,-0.02 0.82,-0.04 1.24,-0.06c0.35,-0.02 0.71,-0.03 1.07,-0.04c0.35,-0.02 0.71,-0.03 1.08,-0.04c1.01,-0.03 2.05,-0.06 3.11,-0.08c3.02,-0.05 6.2,-0.03 9.54,0.04c1.55,0.03 3.13,0.08 4.75,0.15c0.1,0 0.21,0.01 0.31,0.01c1.41,0.04 2.84,0.11 4.29,0.18c1.02,0.05 2.05,0.1 3.08,0.16c0.97,0.06 1.95,0.12 2.94,0.19c0.77,0.04 1.54,0.1 2.32,0.15c0.66,0.05 1.32,0.1 1.98,0.14c0.79,0.06 1.58,0.12 2.38,0.18c1.1,0.09 2.2,0.18 3.32,0.27c1.11,0.1 2.24,0.2 3.37,0.3s2.27,0.21 3.41,0.32c0.12,0.01 0.23,0.02 0.34,0.03c1.04,0.11 2.08,0.21 3.13,0.32q8.73,0.88 17.97,2.07q5.52,0.7 11.18,1.51c5.73,0.81 11.55,1.69 17.41,2.63q8.81,1.42 17.71,3.01c1.5,0.27 3,0.54 4.51,0.82q2.76,0.51 5.52,1.04c1.16,0.22 2.32,0.44 3.48,0.67c1.38,0.27 2.77,0.54 4.15,0.81c9.09,1.8 18.13,3.72 26.95,5.73c1.45,0.33 2.9,0.67 4.34,1q4.32,1 8.56,2.04c0.78,0.19 1.55,0.38 2.32,0.57q2.9,0.72 5.73,1.44l0,0.01c0.11,0.02 0.22,0.05 0.33,0.08c1.38,0.35 2.75,0.7 4.11,1.06q4.82,1.26 9.47,2.54c2.06,0.58 4.1,1.15 6.11,1.73c3.01,0.88 5.96,1.76 8.83,2.64c0.71,0.22 1.42,0.44 2.12,0.65q3.15,0.99 6.18,1.97c1.6,0.52 3.16,1.05 4.7,1.58q2.31,0.79 4.53,1.59c0.96,0.34 1.9,0.69 2.83,1.03c1.36,0.5 2.68,1 3.98,1.51c0.4,0.15 0.79,0.31 1.18,0.46c0.73,0.28 1.44,0.57 2.14,0.86c0.47,0.18 0.93,0.37 1.39,0.57c0.45,0.18 0.91,0.37 1.35,0.56c0.45,0.18 0.89,0.37 1.33,0.57c0.37,0.15 0.73,0.31 1.08,0.47c0.71,0.31 1.42,0.62 2.11,0.94c0.34,0.16 0.68,0.31 1.02,0.47l0.78,0.36c0.11,0.06 0.22,0.11 0.33,0.16c0.85,0.4 1.67,0.8 2.47,1.2c0.75,0.38 1.48,0.76 2.18,1.13c0.83,0.44 1.62,0.87 2.38,1.31c0.15,0.08 0.3,0.17 0.45,0.25c0.51,0.29 1,0.59 1.49,0.88c0.96,0.59 1.87,1.17 2.72,1.75c0.84,0.58 1.62,1.15 2.35,1.72c0,0.01 0,0.01 0.01,0.01c0.35,0.28 0.69,0.56 1.01,0.83c0.52,0.45 1,0.88 1.44,1.32a5.67,5.67 0 0 1 0.42,0.43a1.21,1.21 0 0 1 0.16,0.16c0.21,0.23 0.42,0.46 0.62,0.69c0.24,0.28 0.46,0.56 0.67,0.84c0.1,0.14 0.21,0.28 0.3,0.42c0.12,0.17 0.24,0.35 0.34,0.52c0.09,0.14 0.17,0.29 0.25,0.43a7.26,7.26 0 0 1 0.54,1.13a6.05,6.05 0 0 1 0.27,0.82a5.84,5.84 0 0 1 0.17,0.81z" id="svg_103" opacity="0.2" transform="matrix(1 0 0 1 0 0)"/>
 </g>
</svg>