<?xml version="1.0" encoding="iso-8859-1"?>
<!-- Generator: Adobe Illustrator 16.0.0, SVG Export Plug-In . SVG Version: 6.00 Build 0)  -->
<!DOCTYPE svg PUBLIC "-//W3C//DTD SVG 1.1//EN" "http://www.w3.org/Graphics/SVG/1.1/DTD/svg11.dtd">
<svg version="1.1" id="Capa_1" xmlns="http://www.w3.org/2000/svg" xmlns:xlink="http://www.w3.org/1999/xlink" x="0px" y="0px"
	 width="554.625px" height="554.625px" viewBox="0 0 554.625 554.625" style="enable-background:new 0 0 554.625 554.625;border-radius:5px"
	 xml:space="preserve" >
	 <rect x="0" y="0" width="100%" height="100%" fill="#ccc"/>
<g>
	<g>
		<path d="M210.375,286.875H229.5c11.475,0,19.125,9.562,19.125,19.125h19.125c0-21.037-17.212-38.25-38.25-38.25h-19.125
			c-21.038,0-38.25,17.213-38.25,38.25s17.212,38.25,38.25,38.25H229.5c11.475,0,19.125,7.65,19.125,19.125
			S240.975,382.5,229.5,382.5h-19.125c-11.475,0-19.125-9.562-19.125-19.125l0,0h-19.125l0,0c0,21.037,17.212,38.25,38.25,38.25
			H229.5c21.038,0,38.25-17.213,38.25-38.25s-17.212-38.25-38.25-38.25h-19.125c-11.475,0-19.125-7.65-19.125-19.125
			S198.9,286.875,210.375,286.875z"/>
		<path d="M497.25,210.375H363.375V153L248.625,19.125H38.25C17.212,19.125,0,36.337,0,57.375V497.25
			c0,21.037,17.212,38.25,38.25,38.25h286.875c21.037,0,38.25-17.213,38.25-38.25V459H497.25c32.513,0,57.375-24.862,57.375-57.375
			V267.75C554.625,235.237,529.763,210.375,497.25,210.375z M248.625,47.812L338.513,153H267.75
			c-9.562,0-19.125-9.562-19.125-19.125V47.812z M344.25,497.25c0,9.562-7.65,19.125-19.125,19.125H38.25
			c-9.562,0-19.125-7.65-19.125-19.125V57.375c0-9.562,7.65-19.125,19.125-19.125H229.5v95.625c0,21.038,17.212,38.25,38.25,38.25
			h76.5v38.25H172.125c-32.513,0-57.375,24.862-57.375,57.375v133.875c0,32.513,24.862,57.375,57.375,57.375H344.25V497.25z
			 M535.5,401.625c0,21.037-17.213,38.25-38.25,38.25H172.125c-21.038,0-38.25-17.213-38.25-38.25V267.75
			c0-21.038,17.212-38.25,38.25-38.25H497.25c21.037,0,38.25,17.212,38.25,38.25V401.625z"/>
		<path d="M382.5,363.375V306c0-21.037-17.213-38.25-38.25-38.25h-19.125c-21.037,0-38.25,17.213-38.25,38.25v57.375
			c0,21.037,17.213,38.25,38.25,38.25h19.125c3.825,0,9.562,0,13.388-1.912l17.212,17.212l13.388-13.388l-15.3-15.3
			C378.675,382.5,382.5,372.938,382.5,363.375z M363.375,363.375c0,3.825-1.912,7.65-3.825,11.475l-26.774-26.774l-13.388,13.388
			l21.037,21.037h-15.3c-11.475,0-19.125-7.65-19.125-19.125V306c0-11.475,7.65-19.125,19.125-19.125h19.125
			c11.475,0,19.125,7.65,19.125,19.125V363.375z"/>
		<polygon points="420.75,267.75 401.625,267.75 401.625,401.625 497.25,401.625 497.25,382.5 420.75,382.5 		"/>
	</g>
</g>
<g>
</g>
<g>
</g>
<g>
</g>
<g>
</g>
<g>
</g>
<g>
</g>
<g>
</g>
<g>
</g>
<g>
</g>
<g>
</g>
<g>
</g>
<g>
</g>
<g>
</g>
<g>
</g>
<g>
</g>
</svg>
